<?xml version="1.0" standalone="no"?>
<!DOCTYPE svg PUBLIC "-//W3C//DTD SVG 20010904//EN"
 "http://www.w3.org/TR/2001/REC-SVG-20010904/DTD/svg10.dtd">
<svg version="1.0" xmlns="http://www.w3.org/2000/svg"
 width="512.000000pt" height="512.000000pt" viewBox="0 0 512.000000 512.000000"
 preserveAspectRatio="xMidYMid meet">
<metadata>
Created by potrace 1.16, written by Peter Selinger 2001-2019
</metadata>
<g transform="translate(0.000000,512.000000) scale(0.100000,-0.100000)"
fill="#004195" stroke="none">
<path d="M372 4857 c-22 -23 -22 -28 -22 -373 l0 -351 23 -21 23 -22 1035 0
1036 0 21 23 c22 23 22 28 22 373 l0 351 -23 21 -23 22 -1035 0 -1036 0 -21
-23z"/>
<path d="M395 3797 c-3 -6 -4 -174 -3 -372 l3 -360 313 -3 312 -2 0 -96 c0
-66 5 -104 15 -124 30 -57 35 -53 278 222 113 128 114 122 -69 328 -119 134
-151 165 -172 165 -39 0 -52 -35 -52 -142 l0 -93 -220 0 -220 0 0 158 0 157
-77 88 c-73 84 -98 101 -108 74z"/>
<path d="M1502 3537 c-22 -23 -22 -28 -22 -373 l0 -351 23 -21 23 -22 1035 0
1036 0 21 23 c22 23 22 28 22 373 l0 351 -23 21 -23 22 -1035 0 -1036 0 -21
-23z"/>
<path d="M1562 2148 l3 -373 313 -3 312 -2 0 -98 c0 -102 12 -144 43 -150 24
-5 30 0 188 180 184 209 184 181 -8 401 -155 176 -175 191 -207 145 -12 -17
-16 -48 -16 -120 l0 -98 -220 0 -220 0 0 153 c0 172 5 158 -93 270 -102 114
-98 128 -95 -305z"/>
<path d="M2660 2290 c-19 -19 -20 -33 -20 -375 0 -342 1 -356 20 -375 20 -20
33 -20 1060 -20 1027 0 1040 0 1060 20 19 19 20 33 20 375 0 342 -1 356 -20
375 -20 20 -33 20 -1060 20 -1027 0 -1040 0 -1060 -20z"/>
<path d="M1565 1507 c-3 -6 -4 -174 -3 -372 l3 -360 313 -3 312 -2 0 -96 c0
-66 5 -104 15 -124 30 -57 35 -53 278 222 113 128 114 122 -69 328 -119 134
-151 165 -172 165 -39 0 -52 -35 -52 -142 l0 -93 -220 0 -220 0 0 158 0 157
-77 88 c-73 84 -98 101 -108 74z"/>
<path d="M2690 1190 c-19 -19 -20 -33 -20 -375 0 -342 1 -356 20 -375 20 -20
33 -20 1060 -20 1027 0 1040 0 1060 20 19 19 20 33 20 375 0 342 -1 356 -20
375 -20 20 -33 20 -1060 20 -1027 0 -1040 0 -1060 -20z"/>
</g>
</svg>
