<?xml version="1.0" standalone="no"?>
<!DOCTYPE svg PUBLIC "-//W3C//DTD SVG 20010904//EN"
 "http://www.w3.org/TR/2001/REC-SVG-20010904/DTD/svg10.dtd">
<svg version="1.0" xmlns="http://www.w3.org/2000/svg"
 width="512.000000pt" height="512.000000pt" viewBox="0 0 512.000000 512.000000"
 preserveAspectRatio="xMidYMid meet">
<metadata>
Created by potrace 1.16, written by Peter Selinger 2001-2019
</metadata>
<g transform="translate(0.000000,512.000000) scale(0.100000,-0.100000)"
fill="#004195" stroke="none">
<path d="M456 5025 c-149 -41 -301 -167 -369 -305 -71 -143 -67 -23 -67 -1990
1 -1659 2 -1777 18 -1812 20 -44 518 -533 557 -548 36 -14 115 -12 143 3 12 7
135 122 272 256 l250 243 261 -254 c143 -139 272 -258 287 -265 41 -18 113
-16 147 5 17 10 144 130 283 266 l252 248 160 -154 c89 -84 165 -154 170 -156
6 -2 10 82 10 220 l0 224 -118 117 c-149 147 -209 174 -289 130 -18 -10 -147
-129 -287 -266 -140 -136 -257 -247 -261 -247 -3 0 -122 113 -263 252 -141
138 -271 257 -289 265 -41 17 -85 17 -126 -1 -18 -7 -144 -123 -282 -258
l-250 -245 -158 151 -157 151 0 1725 0 1725 24 50 c26 56 90 119 143 141 42
18 136 20 190 4 137 -41 222 -197 179 -327 -35 -105 -131 -178 -248 -189 -117
-12 -178 -71 -178 -171 0 -55 24 -101 73 -137 l28 -21 1420 -3 1419 -2 0 -720
0 -720 165 0 165 0 2 731 3 730 59 24 c162 66 290 199 346 358 31 87 38 249
16 336 -53 208 -226 382 -432 436 -51 13 -251 15 -1639 14 -1295 -1 -1589 -3
-1629 -14z m3221 -334 c110 -49 183 -170 168 -275 -9 -61 -58 -141 -107 -176
-86 -63 -24 -60 -1355 -60 -667 0 -1213 3 -1213 8 0 4 9 31 20 61 47 121 44
291 -5 414 l-23 58 1232 -3 1231 -3 52 -24z"/>
<path d="M960 3420 c-19 -19 -20 -33 -20 -218 0 -163 3 -201 16 -220 15 -22
20 -22 223 -22 189 0 209 2 224 18 15 16 17 47 17 225 0 201 0 206 -22 221
-19 13 -57 16 -220 16 -185 0 -199 -1 -218 -20z"/>
<path d="M1602 3424 c-22 -15 -22 -20 -22 -224 0 -176 2 -211 16 -224 14 -14
78 -16 559 -16 l544 0 15 22 c13 19 16 57 16 218 0 192 0 197 -23 218 l-23 22
-530 0 c-463 0 -532 -2 -552 -16z"/>
<path d="M960 2770 c-19 -19 -20 -33 -20 -213 0 -158 3 -197 16 -215 15 -22
20 -22 224 -22 176 0 211 2 224 16 14 13 16 47 16 219 0 199 0 204 -22 219
-19 13 -57 16 -220 16 -185 0 -199 -1 -218 -20z"/>
<path d="M1602 2774 c-22 -15 -22 -20 -22 -223 0 -148 3 -210 12 -219 9 -9
147 -12 559 -12 l548 0 15 22 c13 18 16 57 16 215 0 180 -1 194 -20 213 -19
19 -33 20 -553 20 -466 0 -535 -2 -555 -16z"/>
<path d="M3590 2210 c-234 -23 -425 -99 -490 -196 l-25 -38 -3 -565 c-2 -311
0 -580 3 -597 3 -18 24 -53 46 -78 83 -94 287 -163 512 -173 l117 -6 0 -86 c0
-63 6 -97 19 -128 39 -84 173 -159 361 -199 122 -27 468 -27 590 0 185 40 315
111 358 196 21 43 22 53 22 335 0 165 -4 306 -10 327 -21 76 -137 157 -280
198 -85 24 -259 50 -337 50 l-53 0 0 338 c0 207 -4 352 -11 375 -47 171 -426
285 -819 247z m-189 -559 c240 -59 583 -46 782 29 64 24 76 25 93 3 22 -29 16
-49 -22 -83 -168 -147 -697 -169 -961 -40 -55 27 -103 69 -103 90 0 4 9 19 20
33 l21 26 43 -18 c23 -11 81 -28 127 -40z m-81 -241 c249 -83 637 -79 874 10
l58 22 21 -21 c32 -32 14 -69 -53 -109 -121 -72 -308 -107 -530 -98 -229 9
-411 62 -474 137 -24 29 -25 32 -11 60 9 16 18 29 21 29 3 0 46 -13 94 -30z
m165 -305 c50 -8 143 -16 207 -17 115 -3 117 -3 102 -23 -21 -29 -44 -82 -44
-101 0 -15 -11 -16 -112 -11 -186 10 -377 70 -427 134 -26 32 -26 34 -1 66
l20 25 82 -29 c46 -15 124 -35 173 -44z m-41 -256 c50 -10 139 -22 199 -25
l107 -7 0 -70 0 -70 -97 7 c-194 14 -358 63 -424 126 -45 42 -46 48 -19 83
l20 25 62 -25 c34 -14 103 -34 152 -44z m568 -144 c109 -38 244 -56 413 -56
177 0 309 19 430 62 73 26 81 27 97 12 53 -47 -12 -113 -161 -164 -187 -65
-545 -65 -732 0 -110 37 -179 86 -179 125 0 27 30 58 49 50 9 -3 46 -17 83
-29z m-33 -255 c114 -44 245 -63 441 -64 201 0 301 14 438 61 81 27 98 26 108
-12 9 -38 -17 -69 -89 -105 -263 -129 -772 -110 -964 36 -34 26 -41 51 -23 85
13 24 27 24 89 -1z"/>
<path d="M966 2129 l-26 -20 0 -198 c0 -162 3 -200 16 -219 15 -22 20 -22 224
-22 176 0 211 2 224 16 14 13 16 48 16 224 0 204 0 209 -22 224 -18 13 -57 16
-214 16 -178 0 -193 -1 -218 -21z"/>
<path d="M1602 2134 c-22 -15 -22 -20 -22 -224 0 -176 2 -211 16 -224 14 -14
78 -16 559 -16 l544 0 15 22 c13 18 16 57 16 216 0 192 0 193 -25 217 l-24 25
-528 0 c-462 0 -531 -2 -551 -16z"/>
</g>
</svg>
