<?xml version="1.0" standalone="no"?>
<!DOCTYPE svg PUBLIC "-//W3C//DTD SVG 20010904//EN"
 "http://www.w3.org/TR/2001/REC-SVG-20010904/DTD/svg10.dtd">
<svg version="1.0" xmlns="http://www.w3.org/2000/svg"
 width="604.000000pt" height="604.000000pt" viewBox="0 0 604.000000 604.000000"
 preserveAspectRatio="xMidYMid meet">
<metadata>
Created by potrace 1.16, written by Peter Selinger 2001-2019
</metadata>
<g transform="translate(0.000000,604.000000) scale(0.100000,-0.100000)"
fill="#004195" stroke="none">
<path d="M550 4990 l0 -250 1730 0 1730 0 0 250 0 250 -1730 0 -1730 0 0 -250z"/>
<path d="M4500 4990 l0 -250 495 0 495 0 0 250 0 250 -495 0 -495 0 0 -250z"/>
<path d="M550 4005 l0 -245 1730 0 1730 0 0 245 0 245 -1730 0 -1730 0 0 -245z"/>
<path d="M4500 4005 l0 -245 495 0 495 0 0 245 0 245 -495 0 -495 0 0 -245z"/>
<path d="M896 3254 c-13 -13 -16 -42 -16 -160 0 -198 -18 -184 248 -184 177 0
221 -3 288 -20 92 -24 174 -70 216 -122 l29 -37 -376 -3 c-360 -3 -377 -4
-391 -22 -10 -15 -14 -52 -14 -136 0 -100 3 -119 18 -133 16 -15 63 -17 405
-19 l386 -3 -19 -42 c-28 -62 -92 -126 -162 -161 -107 -54 -200 -72 -408 -79
-145 -4 -189 -9 -202 -21 -16 -13 -18 -34 -18 -152 0 -158 -7 -141 119 -275
116 -123 279 -308 476 -540 98 -115 194 -229 214 -251 20 -23 51 -60 69 -83
l33 -41 208 0 c189 0 209 2 224 18 30 32 20 61 -50 146 -37 44 -75 89 -85 99
-10 10 -35 41 -56 70 -22 29 -61 77 -89 107 -27 30 -71 81 -97 113 -64 80
-208 247 -281 326 -111 120 -137 153 -128 160 4 4 40 13 78 20 79 14 240 75
306 116 24 16 79 64 122 107 63 63 87 97 118 163 21 45 45 109 52 141 l14 59
158 3 c204 3 195 -4 195 152 0 163 10 154 -194 158 l-165 3 -15 53 c-9 29 -31
82 -50 119 l-34 67 213 0 c260 0 245 -9 245 150 0 79 -4 111 -16 128 l-15 22
-769 0 c-685 0 -770 -2 -784 -16z"/>
<path d="M3020 3015 l0 -245 495 0 495 0 0 245 0 245 -495 0 -495 0 0 -245z"/>
<path d="M4500 3015 l0 -245 495 0 495 0 0 245 0 245 -495 0 -495 0 0 -245z"/>
<path d="M3020 2030 l0 -250 495 0 495 0 0 250 0 250 -495 0 -495 0 0 -250z"/>
<path d="M4500 2030 l0 -250 495 0 495 0 0 250 0 250 -495 0 -495 0 0 -250z"/>
<path d="M3020 1045 l0 -245 495 0 495 0 0 245 0 245 -495 0 -495 0 0 -245z"/>
<path d="M4500 1045 l0 -245 495 0 495 0 0 245 0 245 -495 0 -495 0 0 -245z"/>
</g>
</svg>
